<svg id="Layer_1" data-name="Layer 1" xmlns="http://www.w3.org/2000/svg" viewBox="0 0 522.05 430.86"><defs><style>.cls-1{fill:#d1d3d4;}.cls-2{fill:#a7a9ac;}.cls-3{fill:none;stroke:#000;stroke-miterlimit:10;stroke-width:3px;}.cls-4{fill:#231f20;}.cls-5{font-size:37.68px;fill:#00aeef;font-family:OpineHeavy, OpineHeavy;}</style></defs><title>Artboard 1</title><rect class="cls-1" x="24.69" y="1.5" width="122.83" height="131.52" rx="12.5" ry="12.5"/><rect class="cls-2" x="16" y="133.02" width="140.22" height="251.09"/><line class="cls-3" x1="86.11" y1="384.11" x2="86.11" y2="254.76"/><path class="cls-4" d="M156.52,138.41l22.56,10.94,11.28,5.47,5.64,2.74c.46.22.95.47,1.4.67l1.27.47,2.49,1-2.44-1.19c8,.86,16.15,1.14,24.56,1.34s17.07.31,26.17.88l.54,0a21.31,21.31,0,1,1-2.65,42.54,21.61,21.61,0,0,1-8.27-2.24c-7.18-3.62-15-7.06-22.92-10.68S200,182.9,192.06,178.44l-2.45-1.19L187,174.73l-1.27-1.25c-.37-.41-.69-.79-1-1.19l-4.12-4.73-8.23-9.45-16.47-18.9a.52.52,0,0,1,.05-.72A.52.52,0,0,1,156.52,138.41Z"/><path class="cls-4" d="M16.5,133.05l.21,122.23a8.36,8.36,0,1,1-16.71,0,9.3,9.3,0,0,1,.07-1.07L15.5,133a.5.5,0,0,1,.56-.44A.51.51,0,0,1,16.5,133.05Z"/><rect class="cls-1" x="375.16" y="0.16" width="122.83" height="131.52" rx="12.5" ry="12.5" transform="translate(872.92 133.31) rotate(-179.81)"/><rect class="cls-2" x="365.82" y="131.68" width="140.22" height="251.09" transform="translate(871 515.91) rotate(-179.81)"/><line class="cls-3" x1="435.51" y1="382.77" x2="435.95" y2="253.42"/><path class="cls-4" d="M366.53,137.64,350,156.49l-8.27,9.43-4.13,4.71c-.35.39-.67.78-1.05,1.18l-1.27,1.25-2.58,2.52-2.45,1.17c-8,4.43-16.16,8.21-24.13,11.81s-15.76,7-23,10.61a21.32,21.32,0,1,1-10.89-40.34l.65,0c9.1-.54,17.76-.62,26.17-.79s16.57-.43,24.57-1.26l-2.45,1.18,2.5-.94,1.27-.47c.45-.2.94-.44,1.4-.66l5.65-2.72,11.3-5.43,22.59-10.86a.5.5,0,0,1,.68.23A.52.52,0,0,1,366.53,137.64Z"/><path class="cls-4" d="M507,131.89l15,121.3a8.36,8.36,0,0,1-16.59,2.06,9.87,9.87,0,0,1-.06-1.07L506,132a.5.5,0,0,1,.51-.5A.5.5,0,0,1,507,131.89Z"/><text class="cls-5" transform="translate(199.45 422.01) scale(0.61 1)">ABOUT US</text></svg>