<svg xmlns="http://www.w3.org/2000/svg" viewBox="0 0 328.37 526.82"><defs><style>.cls-1{fill:#414042;}.cls-1,.cls-10,.cls-11,.cls-2,.cls-3,.cls-9{stroke:#594a42;stroke-miterlimit:10;}.cls-2{fill:#00aeef;}.cls-3,.cls-6{fill:#a7a9ac;}.cls-4,.cls-8{font-size:48px;}.cls-11,.cls-16,.cls-17,.cls-18,.cls-19,.cls-4,.cls-5{fill:#231f20;}.cls-4{font-family:Playbill, Playbill;}.cls-7{fill:#939598;}.cls-8{fill:#4454a4;font-family:PoorRichard-Regular, Poor Richard;}.cls-9{fill:none;stroke-width:4px;}.cls-10{fill:#6d6e71;}.cls-12{fill:#262262;}.cls-13{fill:#f15a29;}.cls-14{fill:#00a651;}.cls-15{fill:#ed1c24;}.cls-16{font-size:27px;}.cls-16,.cls-17,.cls-18{font-family:Salina, Salina;}.cls-17{font-size:19.2px;}.cls-18,.cls-19{font-size:24px;}.cls-19{font-family:MyriadPro-Regular, Myriad Pro;}</style></defs><title>Artboard 1</title><g id="Layer_8" data-name="Layer 8"><rect class="cls-1" x="25.43" y="4.69" width="279.78" height="521.35" rx="20.22" ry="20.22"/><rect class="cls-2" x="45.92" y="29.96" width="243.31" height="235.97" rx="5.78" ry="5.78"/><circle class="cls-3" cx="289.22" cy="17.61" r="5.06"/><rect class="cls-1" x="41.14" y="304.69" width="248.09" height="214.61" rx="10.67" ry="10.67"/><text class="cls-4" transform="translate(157.31 299.92)">JIO</text><rect class="cls-5" x="115.99" y="312.31" width="96.64" height="61.72"/><rect class="cls-6" x="51.27" y="343.03" width="52.81" height="27.69"/><rect class="cls-6" x="55.76" y="383.91" width="56.18" height="23.03"/><rect class="cls-7" x="135.93" y="384.02" width="56.18" height="23.03"/><rect class="cls-6" x="218.69" y="383.91" width="56.18" height="23.03"/><rect class="cls-6" x="55.76" y="417.05" width="56.18" height="23.03"/><rect class="cls-6" x="136.22" y="417.05" width="56.18" height="23.03"/><rect class="cls-6" x="218.69" y="417.89" width="56.18" height="23.03"/><rect class="cls-6" x="55.76" y="449.35" width="56.18" height="23.03"/><rect class="cls-6" x="135.93" y="449.35" width="56.18" height="23.03"/><rect class="cls-6" x="218.69" y="450.13" width="56.18" height="23.03"/><rect class="cls-6" x="55.76" y="483.91" width="56.18" height="23.03"/><rect class="cls-6" x="135.93" y="483.91" width="56.18" height="23.03"/><rect class="cls-6" x="218.69" y="483.91" width="56.18" height="23.03"/><rect class="cls-6" x="51.27" y="311.51" width="52.81" height="27.69"/><rect class="cls-6" x="224.54" y="343.03" width="52.81" height="27.69"/><rect class="cls-6" x="224.54" y="311.51" width="52.81" height="27.69"/><text class="cls-8" transform="translate(71.5 165.15)">Click Here</text><line class="cls-9" x1="130.49" y1="17.61" x2="204.65" y2="17.61"/><rect class="cls-10" x="122.7" y="316.77" width="84.97" height="49.44"/><rect class="cls-11" x="135.93" y="325.36" width="56.47" height="31.52"/><rect class="cls-12" x="55.76" y="316.77" width="40.87" height="17.13" rx="8.57" ry="8.57"/><rect class="cls-13" x="229.6" y="316.79" width="42.7" height="17.13" rx="8.57" ry="8.57"/><rect class="cls-14" x="55.76" y="349.71" width="40.87" height="14.33" rx="7.17" ry="7.17"/><rect class="cls-15" x="229.6" y="349.71" width="42.7" height="14.33" rx="7.17" ry="7.17"/><text class="cls-16" transform="translate(55.76 255.25)">Menu</text><text class="cls-17" transform="translate(200.36 252.76) scale(1.31 1)">Contacts</text><text class="cls-18" transform="translate(77.67 401.61)">1</text><text class="cls-18" transform="translate(157.19 402.52)">2</text><text class="cls-18" transform="translate(241.63 401.61)">3</text><text class="cls-18" transform="translate(79.09 434.52)">4</text><text class="cls-18" transform="translate(157.48 436.58)">5</text><text class="cls-18" transform="translate(241.63 436.58)">6</text><text class="cls-18" transform="translate(80.12 469.91)">7</text><text class="cls-18" transform="translate(157.19 467.85)">8</text><text class="cls-18" transform="translate(241.63 467.85)">9</text><text class="cls-18" transform="translate(80.47 506.52)">*</text><text class="cls-18" transform="translate(157.19 501.82)">0</text><text class="cls-19" transform="translate(236.86 502.4)">#</text></g></svg>