<?xml version="1.0" encoding="iso-8859-1"?>
<!-- Generator: Adobe Illustrator 22.1.0, SVG Export Plug-In . SVG Version: 6.00 Build 0)  -->
<svg version="1.1" id="Layer_1" xmlns="http://www.w3.org/2000/svg" xmlns:xlink="http://www.w3.org/1999/xlink" x="0px" y="0px"
	 viewBox="0 0 661 228" style="enable-background:new 0 0 661 228;" xml:space="preserve">
<g>
	<rect x="198.122" y="19.051" style="fill:#FFFF00;" width="314.967" height="196.099"/>
	<rect x="198.122" y="110.797" style="fill:#FCEE21;" width="314.967" height="104.353"/>
	<polygon style="fill:#C69C6D;" points="513.089,19.051 638.822,110.797 513.089,215.15 	"/>
	<polygon style="fill:#C69C6D;" points="513.089,19.051 638.822,110.797 513.089,215.15 	"/>
	
		<line style="fill:none;stroke:#150200;stroke-width:7;stroke-miterlimit:10;" x1="198.122" y1="110.797" x2="513.089" y2="110.797"/>
	<path style="fill:#FF001C;stroke:#000000;stroke-width:3;stroke-miterlimit:10;" d="M185.804,215.5H32c-6.6,0-12-5.4-12-12V30.7
		c0-6.6,5.4-12,12-12h153.804c6.6,0,12,5.4,12,12v172.8C197.804,210.1,192.404,215.5,185.804,215.5z"/>
	
		<rect x="72.071" y="19.401" style="fill:#4D4D4D;stroke:#000000;stroke-width:2;stroke-miterlimit:10;" width="66.677" height="195.399"/>
	
		<rect x="138.748" y="18" style="fill:#333333;stroke:#000000;stroke-width:2;stroke-miterlimit:10;" width="59.056" height="196.099"/>
	<polygon style="fill:#666666;stroke:#231F20;stroke-linecap:round;stroke-miterlimit:10;" points="589.695,75.472 647,112.023 
		589.695,148.574 	"/>
</g>
<rect x="-90" y="-74" style="fill:none;" width="998" height="392"/>
</svg>
